<svg xmlns="http://www.w3.org/2000/svg" version="1.1" xmlns:xlink="http://www.w3.org/1999/xlink" xmlns:svgjs="http://svgjs.com/svgjs" width="568" height="113" overflow="hidden"><g class="signage-logo" opacity="1"><defs id="SvgjsDefs1046"></defs><g id="SvgjsG1047" transform="scale(0.923135237448209)" opacity="1"><g id="SvgjsG1048" class="wsp9f8Je4" transform="translate(-10.739106116733327, -46.201782227487406) scale(2.1478214407683485)" light-content="false" non-strokable="false" fill="#8d1c74"><circle fill="none" cx="69.734" cy="37.7" r="5.161"></circle><circle fill="none" cx="42.003" cy="57.167" r="5.16"></circle><circle fill="none" cx="26.666" cy="72.159" r="5.16"></circle><circle fill="none" cx="51.84" cy="27.84" r="5.16"></circle><ellipse fill="none" cx="26.666" cy="42.504" rx="5.159" ry="5.161"></ellipse><path d="M5.585 28.425H45.54c.296 3.217 3.007 5.745 6.3 5.745a6.336 6.336 0 0 0 6.329-6.33 6.336 6.336 0 0 0-6.329-6.329c-3.293 0-6.003 2.528-6.3 5.744H5.585a.585.585 0 0 0 0 1.17zM51.84 22.68A5.166 5.166 0 0 1 57 27.84 5.166 5.166 0 0 1 51.84 33a5.166 5.166 0 0 1-5.16-5.16 5.166 5.166 0 0 1 5.16-5.16zm-9.836 40.817c3.49 0 6.33-2.839 6.33-6.329a6.336 6.336 0 0 0-6.33-6.33c-3.293 0-6.004 2.528-6.3 5.745H5.585a.584.584 0 1 0 0 1.169h30.118c.297 3.217 3.007 5.745 6.301 5.745zm0-11.49a5.166 5.166 0 0 1 5.16 5.16 5.166 5.166 0 0 1-5.16 5.16 5.166 5.166 0 0 1-5.16-5.16 5.165 5.165 0 0 1 5.16-5.16zm52.411 12.311H65.202a.581.581 0 0 0-.413.171l-7.086 7.084H32.965a6.335 6.335 0 0 0-6.3-5.744 6.335 6.335 0 0 0-6.327 6.329c0 3.491 2.838 6.331 6.327 6.331 3.293 0 6.004-2.529 6.3-5.746h24.98a.585.585 0 0 0 .413-.171l7.086-7.085h28.971a.584.584 0 1 0 0-1.169zM26.665 77.32a5.166 5.166 0 0 1-5.158-5.161 5.165 5.165 0 0 1 5.158-5.16 5.166 5.166 0 0 1 5.16 5.16 5.166 5.166 0 0 1-5.16 5.161z"></path><path d="M94.415 54.483H65.641L53.246 42.091a.581.581 0 0 0-.413-.171H32.965c-.296-3.218-3.007-5.747-6.3-5.747-3.489 0-6.327 2.84-6.327 6.332a6.335 6.335 0 0 0 6.327 6.33c3.293 0 6.004-2.528 6.3-5.745h19.626l12.394 12.392c.11.109.258.171.414.171h29.016a.585.585 0 0 0 0-1.17zm-67.75-6.818a5.165 5.165 0 0 1-5.158-5.16 5.166 5.166 0 0 1 5.158-5.162 5.167 5.167 0 0 1 5.16 5.162 5.166 5.166 0 0 1-5.16 5.16zm43.069-3.634c3.293 0 6.004-2.529 6.3-5.746h18.381a.585.585 0 0 0 0-1.17H76.034c-.296-3.217-3.007-5.746-6.3-5.746-3.49 0-6.33 2.84-6.33 6.331.001 3.49 2.84 6.331 6.33 6.331zm0-11.492a5.166 5.166 0 0 1 5.16 5.161 5.166 5.166 0 0 1-5.16 5.161 5.166 5.166 0 0 1-5.16-5.161 5.166 5.166 0 0 1 5.16-5.161z"></path></g><g id="SvgjsG1049" class="text" transform="translate(415.76058321913973, 92.10706153241495) scale(1)" light-content="false" fill="#4a4a4a"><path d="M-121.96 -61.63L-134.84 -61.63L-142.66 -28.01C-143.16 -26.04 -143.73 -23.32 -144.37 -19.86C-145.01 -16.39 -145.45 -13.72 -145.7 -11.85C-146.11 -14.75 -146.56 -17.47 -147.06 -20C-147.65 -23.4 -148.14 -25.77 -148.51 -27.12L-157.5 -61.63L-169.82 -61.63L-178.81 -27.12C-179.41 -24.9 -179.99 -22.21 -180.57 -19.04C-181.15 -15.87 -181.51 -13.47 -181.67 -11.85C-182.23 -16.03 -183.23 -21.42 -184.67 -28.01L-192.58 -61.63L-205.42 -61.63L-189.68 0L-174.88 0L-166.54 -32.27L-165 -39.43C-164.28 -42.81 -163.86 -45.26 -163.73 -46.79C-163.61 -45.51 -163.17 -43.04 -162.42 -39.39C-161.67 -35.73 -161.16 -33.39 -160.88 -32.36L-152.54 0L-137.65 0Z M-101.12 -23.65L-94.18 -23.65L-79.48 0L-64.96 0C-67.77 -4.06 -73.81 -13 -83.08 -26.84C-79.4 -28.46 -76.57 -30.68 -74.58 -33.51C-72.6 -36.34 -71.61 -39.56 -71.61 -43.18C-71.61 -49.39 -73.63 -54.02 -77.67 -57.07C-81.72 -60.11 -87.91 -61.63 -96.24 -61.63L-114.18 -61.63L-114.18 0L-101.12 0ZM-101.12 -50.91L-97.18 -50.91C-92.9 -50.91 -89.77 -50.28 -87.79 -49.01C-85.81 -47.75 -84.82 -45.66 -84.82 -42.76C-84.82 -39.86 -85.8 -37.72 -87.77 -36.34C-89.73 -34.97 -92.78 -34.28 -96.9 -34.28L-101.12 -34.28Z M-21.73 -10.77L-44.12 -10.77L-44.12 -26.7L-23.28 -26.7L-23.28 -37.37L-44.12 -37.37L-44.12 -50.91L-21.73 -50.91L-21.73 -61.63L-57.18 -61.63L-57.18 0L-21.73 0Z M26.6 -10.77L4.22 -10.77L4.22 -26.7L25.06 -26.7L25.06 -37.37L4.22 -37.37L4.22 -50.91L26.6 -50.91L26.6 -61.63L-8.85 -61.63L-8.85 0L26.6 0Z M60.6 -26.84C67.91 -26.84 71.56 -24.28 71.56 -19.16C71.56 -16.31 70.7 -14.21 68.99 -12.83C67.27 -11.46 64.62 -10.77 61.03 -10.77L52.55 -10.77L52.55 -26.84ZM52.55 -50.91L59.39 -50.91C63.16 -50.91 65.91 -50.39 67.63 -49.36C69.35 -48.33 70.2 -46.6 70.2 -44.16C70.2 -41.73 69.42 -39.97 67.84 -38.87C66.26 -37.78 63.69 -37.23 60.14 -37.23L52.55 -37.23ZM39.48 0L62.52 0C69.46 0 74.96 -1.57 79.03 -4.71C83.11 -7.84 85.15 -12.24 85.15 -17.89C85.15 -21.89 84.26 -25.07 82.5 -27.45C80.73 -29.82 77.93 -31.43 74.09 -32.27L74.09 -32.69C77 -33.19 79.31 -34.63 81.02 -37C82.74 -39.37 83.6 -42.39 83.6 -46.04C83.6 -51.47 81.62 -55.43 77.65 -57.91C73.69 -60.39 67.35 -61.63 58.64 -61.63L39.48 -61.63Z M135.49 0L135.49 -10.77L110.53 -10.77L110.53 -61.63L97.46 -61.63L97.46 0Z M171.13 -51.71C181.5 -51.71 186.68 -44.77 186.68 -30.91C186.68 -17.05 181.48 -10.12 171.06 -10.12C160.65 -10.12 155.44 -17.05 155.44 -30.91C155.44 -37.78 156.76 -42.96 159.4 -46.46C162.04 -49.96 165.95 -51.71 171.13 -51.71ZM149.31 -54.47C144.25 -49.07 141.72 -41.23 141.72 -30.96C141.72 -20.69 144.25 -12.82 149.31 -7.35C154.37 -1.89 161.62 0.84 171.06 0.84C180.51 0.84 187.76 -1.89 192.82 -7.35C197.88 -12.82 200.4 -20.65 200.4 -30.86C200.4 -41.07 197.9 -48.91 192.89 -54.37C187.88 -59.84 180.64 -62.57 171.18 -62.57C161.72 -62.57 154.43 -59.87 149.31 -54.47Z"></path></g></g></g></svg>