<svg xmlns="http://www.w3.org/2000/svg" version="1.1" xmlns:xlink="http://www.w3.org/1999/xlink" xmlns:svgjs="http://svgjs.com/svgjs" width="422" height="296" overflow="hidden"><g class="facebook-logo" opacity="1"><defs id="SvgjsDefs1020"></defs><g id="SvgjsG1021" transform="scale(1.2216206525865365)" opacity="1"><g id="SvgjsG1022" class="JNuXNyHsc" transform="translate(36.01121409927367, -58.487995141454164) scale(2.7189810421995473)" light-content="false" non-strokable="false" fill="#8d1c74"><circle fill="none" cx="69.734" cy="37.7" r="5.161"></circle><circle fill="none" cx="42.003" cy="57.167" r="5.16"></circle><circle fill="none" cx="26.666" cy="72.159" r="5.16"></circle><circle fill="none" cx="51.84" cy="27.84" r="5.16"></circle><ellipse fill="none" cx="26.666" cy="42.504" rx="5.159" ry="5.161"></ellipse><path d="M5.585 28.425H45.54c.296 3.217 3.007 5.745 6.3 5.745a6.336 6.336 0 0 0 6.329-6.33 6.336 6.336 0 0 0-6.329-6.329c-3.293 0-6.003 2.528-6.3 5.744H5.585a.585.585 0 0 0 0 1.17zM51.84 22.68A5.166 5.166 0 0 1 57 27.84 5.166 5.166 0 0 1 51.84 33a5.166 5.166 0 0 1-5.16-5.16 5.166 5.166 0 0 1 5.16-5.16zm-9.836 40.817c3.49 0 6.33-2.839 6.33-6.329a6.336 6.336 0 0 0-6.33-6.33c-3.293 0-6.004 2.528-6.3 5.745H5.585a.584.584 0 1 0 0 1.169h30.118c.297 3.217 3.007 5.745 6.301 5.745zm0-11.49a5.166 5.166 0 0 1 5.16 5.16 5.166 5.166 0 0 1-5.16 5.16 5.166 5.166 0 0 1-5.16-5.16 5.165 5.165 0 0 1 5.16-5.16zm52.411 12.311H65.202a.581.581 0 0 0-.413.171l-7.086 7.084H32.965a6.335 6.335 0 0 0-6.3-5.744 6.335 6.335 0 0 0-6.327 6.329c0 3.491 2.838 6.331 6.327 6.331 3.293 0 6.004-2.529 6.3-5.746h24.98a.585.585 0 0 0 .413-.171l7.086-7.085h28.971a.584.584 0 1 0 0-1.169zM26.665 77.32a5.166 5.166 0 0 1-5.158-5.161 5.165 5.165 0 0 1 5.158-5.16 5.166 5.166 0 0 1 5.16 5.16 5.166 5.166 0 0 1-5.16 5.161z"></path><path d="M94.415 54.483H65.641L53.246 42.091a.581.581 0 0 0-.413-.171H32.965c-.296-3.218-3.007-5.747-6.3-5.747-3.489 0-6.327 2.84-6.327 6.332a6.335 6.335 0 0 0 6.327 6.33c3.293 0 6.004-2.528 6.3-5.745h19.626l12.394 12.392c.11.109.258.171.414.171h29.016a.585.585 0 0 0 0-1.17zm-67.75-6.818a5.165 5.165 0 0 1-5.158-5.16 5.166 5.166 0 0 1 5.158-5.162 5.167 5.167 0 0 1 5.16 5.162 5.166 5.166 0 0 1-5.16 5.16zm43.069-3.634c3.293 0 6.004-2.529 6.3-5.746h18.381a.585.585 0 0 0 0-1.17H76.034c-.296-3.217-3.007-5.746-6.3-5.746-3.49 0-6.33 2.84-6.33 6.331.001 3.49 2.84 6.331 6.33 6.331zm0-11.492a5.166 5.166 0 0 1 5.16 5.161 5.166 5.166 0 0 1-5.16 5.161 5.166 5.166 0 0 1-5.16-5.161 5.166 5.166 0 0 1 5.16-5.161z"></path></g><g id="SvgjsG1023" class="text" transform="translate(175.1699981689453, 242.23889987113702) scale(1)" light-content="false" fill="#4a4a4a"><path d="M-104 -52.56L-114.99 -52.56L-121.66 -23.88C-122.08 -22.21 -122.57 -19.89 -123.11 -16.93C-123.66 -13.98 -124.04 -11.7 -124.25 -10.1C-124.6 -12.58 -124.98 -14.9 -125.41 -17.05C-125.92 -19.96 -126.33 -21.98 -126.65 -23.12L-134.32 -52.56L-144.82 -52.56L-152.49 -23.12C-152.99 -21.23 -153.49 -18.94 -153.99 -16.24C-154.48 -13.53 -154.79 -11.49 -154.92 -10.1C-155.4 -13.67 -156.26 -18.27 -157.48 -23.88L-164.23 -52.56L-175.17 -52.56L-161.75 0L-149.13 0L-142.02 -27.52L-140.71 -33.63C-140.09 -36.5 -139.73 -38.59 -139.63 -39.9C-139.52 -38.81 -139.15 -36.7 -138.51 -33.59C-137.87 -30.47 -137.43 -28.48 -137.19 -27.6L-130.08 0L-117.38 0Z M-86.23 -20.17L-80.32 -20.17L-67.78 0L-55.4 0C-57.79 -3.46 -62.94 -11.09 -70.85 -22.89C-67.71 -24.27 -65.29 -26.17 -63.6 -28.58C-61.91 -30.99 -61.07 -33.74 -61.07 -36.82C-61.07 -42.12 -62.79 -46.07 -66.24 -48.67C-69.69 -51.26 -74.97 -52.56 -82.08 -52.56L-97.37 -52.56L-97.37 0L-86.23 0ZM-86.23 -43.41L-82.87 -43.41C-79.23 -43.41 -76.56 -42.87 -74.87 -41.8C-73.18 -40.72 -72.33 -38.94 -72.33 -36.46C-72.33 -33.99 -73.17 -32.16 -74.85 -30.99C-76.52 -29.82 -79.12 -29.24 -82.63 -29.24L-86.23 -29.24Z M-18.53 -9.19L-37.62 -9.19L-37.62 -22.77L-19.85 -22.77L-19.85 -31.87L-37.62 -31.87L-37.62 -43.41L-18.53 -43.41L-18.53 -52.56L-48.77 -52.56L-48.77 0L-18.53 0Z M22.69 -9.19L3.59 -9.19L3.59 -22.77L21.37 -22.77L21.37 -31.87L3.59 -31.87L3.59 -43.41L22.69 -43.41L22.69 -52.56L-7.55 -52.56L-7.55 0L22.69 0Z M51.68 -22.89C57.91 -22.89 61.03 -20.7 61.03 -16.34C61.03 -13.91 60.3 -12.11 58.83 -10.94C57.37 -9.77 55.1 -9.19 52.04 -9.19L44.81 -9.19L44.81 -22.89ZM44.81 -43.41L50.64 -43.41C53.86 -43.41 56.21 -42.97 57.67 -42.1C59.14 -41.22 59.87 -39.74 59.87 -37.66C59.87 -35.59 59.2 -34.08 57.85 -33.15C56.51 -32.22 54.32 -31.75 51.28 -31.75L44.81 -31.75ZM33.67 0L53.32 0C59.23 0 63.92 -1.34 67.4 -4.01C70.87 -6.69 72.61 -10.44 72.61 -15.26C72.61 -18.66 71.86 -21.38 70.35 -23.4C68.85 -25.43 66.46 -26.8 63.18 -27.52L63.18 -27.88C65.66 -28.3 67.63 -29.53 69.1 -31.55C70.56 -33.58 71.29 -36.15 71.29 -39.26C71.29 -43.89 69.6 -47.27 66.22 -49.38C62.84 -51.5 57.43 -52.56 50 -52.56L33.67 -52.56Z M115.54 0L115.54 -9.19L94.26 -9.19L94.26 -52.56L83.11 -52.56L83.11 0Z M145.94 -44.09C154.78 -44.09 159.2 -38.18 159.2 -26.36C159.2 -14.54 154.76 -8.63 145.88 -8.63C137 -8.63 132.56 -14.54 132.56 -26.36C132.56 -32.22 133.68 -36.64 135.93 -39.62C138.18 -42.6 141.52 -44.09 145.94 -44.09ZM127.33 -46.45C123.01 -41.84 120.86 -35.16 120.86 -26.4C120.86 -17.64 123.01 -10.93 127.33 -6.27C131.64 -1.61 137.82 0.72 145.88 0.72C153.93 0.72 160.12 -1.61 164.43 -6.27C168.74 -10.93 170.9 -17.61 170.9 -26.32C170.9 -35.03 168.76 -41.71 164.49 -46.37C160.22 -51.03 154.05 -53.36 145.98 -53.36C137.91 -53.36 131.69 -51.06 127.33 -46.45Z"></path></g></g></g></svg>