<svg xmlns="http://www.w3.org/2000/svg" version="1.1" xmlns:xlink="http://www.w3.org/1999/xlink" xmlns:svgjs="http://svgjs.com/svgjs" width="468" height="297" overflow="hidden"><g class="signage-logo" opacity="1"><defs id="SvgjsDefs1059"></defs><g id="SvgjsG1060" transform="scale(2.4252611918519817)" opacity="1"><g id="SvgjsG1061" class="wsp9f8Je4" transform="translate(-10.739106116733327, -46.201782227487406) scale(2.1478214407683485)" light-content="false" non-strokable="false" fill="#8d1c74"><circle fill="none" cx="69.734" cy="37.7" r="5.161"></circle><circle fill="none" cx="42.003" cy="57.167" r="5.16"></circle><circle fill="none" cx="26.666" cy="72.159" r="5.16"></circle><circle fill="none" cx="51.84" cy="27.84" r="5.16"></circle><ellipse fill="none" cx="26.666" cy="42.504" rx="5.159" ry="5.161"></ellipse><path d="M5.585 28.425H45.54c.296 3.217 3.007 5.745 6.3 5.745a6.336 6.336 0 0 0 6.329-6.33 6.336 6.336 0 0 0-6.329-6.329c-3.293 0-6.003 2.528-6.3 5.744H5.585a.585.585 0 0 0 0 1.17zM51.84 22.68A5.166 5.166 0 0 1 57 27.84 5.166 5.166 0 0 1 51.84 33a5.166 5.166 0 0 1-5.16-5.16 5.166 5.166 0 0 1 5.16-5.16zm-9.836 40.817c3.49 0 6.33-2.839 6.33-6.329a6.336 6.336 0 0 0-6.33-6.33c-3.293 0-6.004 2.528-6.3 5.745H5.585a.584.584 0 1 0 0 1.169h30.118c.297 3.217 3.007 5.745 6.301 5.745zm0-11.49a5.166 5.166 0 0 1 5.16 5.16 5.166 5.166 0 0 1-5.16 5.16 5.166 5.166 0 0 1-5.16-5.16 5.165 5.165 0 0 1 5.16-5.16zm52.411 12.311H65.202a.581.581 0 0 0-.413.171l-7.086 7.084H32.965a6.335 6.335 0 0 0-6.3-5.744 6.335 6.335 0 0 0-6.327 6.329c0 3.491 2.838 6.331 6.327 6.331 3.293 0 6.004-2.529 6.3-5.746h24.98a.585.585 0 0 0 .413-.171l7.086-7.085h28.971a.584.584 0 1 0 0-1.169zM26.665 77.32a5.166 5.166 0 0 1-5.158-5.161 5.165 5.165 0 0 1 5.158-5.16 5.166 5.166 0 0 1 5.16 5.16 5.166 5.166 0 0 1-5.16 5.161z"></path><path d="M94.415 54.483H65.641L53.246 42.091a.581.581 0 0 0-.413-.171H32.965c-.296-3.218-3.007-5.747-6.3-5.747-3.489 0-6.327 2.84-6.327 6.332a6.335 6.335 0 0 0 6.327 6.33c3.293 0 6.004-2.528 6.3-5.745h19.626l12.394 12.392c.11.109.258.171.414.171h29.016a.585.585 0 0 0 0-1.17zm-67.75-6.818a5.165 5.165 0 0 1-5.158-5.16 5.166 5.166 0 0 1 5.158-5.162 5.167 5.167 0 0 1 5.16 5.162 5.166 5.166 0 0 1-5.16 5.16zm43.069-3.634c3.293 0 6.004-2.529 6.3-5.746h18.381a.585.585 0 0 0 0-1.17H76.034c-.296-3.217-3.007-5.746-6.3-5.746-3.49 0-6.33 2.84-6.33 6.331.001 3.49 2.84 6.331 6.33 6.331zm0-11.492a5.166 5.166 0 0 1 5.16 5.161 5.166 5.166 0 0 1-5.16 5.161 5.166 5.166 0 0 1-5.16-5.161 5.166 5.166 0 0 1 5.16-5.161z"></path></g></g></g></svg>